first trial
nRows=13
nColumns=38

# SIMM Motion File Header:
name Sujet_08_velo_100.mvnx
datacolumns 38
datarows 13
otherdata 1
range 3.8830 4.0830
endheader
time pelvis_tilt  pelvis_list  pelvis_rotation  pelvis_tx  pelvis_ty  pelvis_tz  hip_flexion_r  hip_adduction_r  hip_rotation_r  knee_angle_r  ankle_angle_r  subtalar_angle_r  mtp_angle_r  hip_flexion_l  hip_adduction_l  hip_rotation_l  knee_angle_l  ankle_angle_l  subtalar_angle_l  mtp_angle_l  lumbar_extension  lumbar_bending  lumbar_rotation  arm_flex_r  arm_add_r  arm_rot_r  elbow_flex_r  pro_sup_r  wrist_flex_r  wrist_dev_r  arm_flex_l  arm_add_l  arm_rot_l  elbow_flex_l  pro_sup_l  wrist_flex_l  wrist_dev_l
3.8830	-24.1346	2.7929	44.2438	0.0000	1.2500	-0.0000	60.0329	-3.7709	-13.9500	39.3521	-20.8659	8.9877	0.0000	90.1319	5.7672	-0.1855	103.9060	-16.5503	6.9019	-0.0000	-12.3403	-1.3849	0.6708	83.2956	-10.8024	18.5449	0.8947	89.0614	-36.8510	-20.5834	84.0928	-9.4079	12.6115	7.0613	87.4888	-33.8374	-25.3109	
3.9000	-24.1903	3.0035	44.9853	0.0000	1.2500	-0.0000	56.5687	-4.2676	-14.6888	36.8077	-21.9883	8.9703	-0.0000	93.5169	6.7675	0.5116	105.7427	-14.0966	6.5683	0.0000	-12.2873	-1.3682	0.4897	83.2871	-11.3182	18.8124	0.7893	88.4181	-36.7245	-20.8296	84.0404	-9.0267	12.3092	6.8140	88.0297	-33.9540	-25.2823	
3.9160	-24.2882	3.3470	45.6225	0.0000	1.2500	-0.0000	54.2166	-4.6698	-15.1001	36.2516	-22.2482	8.6246	-0.0000	96.2715	7.7963	1.4275	106.0980	-11.6429	5.4768	-0.0000	-12.2417	-1.4227	0.3204	83.2862	-11.7335	18.9455	0.7833	87.9126	-36.6453	-21.0286	83.9640	-8.8357	12.2271	6.6501	88.3400	-34.0203	-25.3157	
3.9330	-24.4180	3.7516	46.1575	0.0000	1.2500	-0.0000	52.7548	-5.0585	-15.1776	37.3194	-21.9154	8.0727	-0.0000	98.4556	8.8103	2.4066	105.1886	-9.1745	3.9983	-0.0000	-12.2021	-1.5170	0.1686	83.3075	-12.0811	19.0327	0.8271	87.4648	-36.5837	-21.2012	83.8699	-8.7598	12.2567	6.5424	88.5134	-34.0662	-25.3819	
3.9500	-24.5190	4.0775	46.5180	0.0000	1.2500	-0.0000	52.1760	-5.4068	-14.9625	39.7558	-21.4234	7.5768	-0.0000	99.7498	9.6475	3.0516	103.2292	-7.3280	3.0117	0.0000	-12.1864	-1.6006	0.0623	83.3921	-12.3061	19.1440	0.8629	87.0499	-36.5229	-21.3090	83.7977	-8.7224	12.3335	6.5037	88.5744	-34.1116	-25.4144	
3.9660	-24.5747	4.2953	46.6554	0.0000	1.2500	-0.0000	52.6049	-5.7078	-14.4717	43.7402	-20.8893	7.0865	-0.0000	100.0303	10.2978	3.3003	100.1772	-6.3071	2.9046	-0.0000	-12.2077	-1.6715	0.0143	83.5777	-12.3615	19.2999	0.8570	86.6415	-36.4632	-21.3216	83.7716	-8.7085	12.4919	6.5600	88.4589	-34.1660	-25.3818	
3.9830	-24.6055	4.4327	46.6169	0.0000	1.2500	-0.0000	53.9238	-5.9534	-13.6571	49.0934	-20.2017	6.5798	-0.0000	99.4185	10.7502	3.2717	96.0998	-5.8878	3.2657	0.0000	-12.2522	-1.7317	0.0116	83.8289	-12.2942	19.4822	0.8421	86.2658	-36.4043	-21.2696	83.7679	-8.7330	12.6973	6.6864	88.2300	-34.2198	-25.3152	
4.0000	-24.6066	4.4342	46.4743	0.0000	1.2500	-0.0000	55.7604	-6.0950	-12.4729	55.0156	-19.4316	6.4147	0.0000	97.9686	10.8420	2.8328	91.3781	-6.0255	3.7965	-0.0000	-12.2964	-1.7380	0.0444	84.0784	-12.1904	19.7027	0.8604	85.9768	-36.3273	-21.2047	83.7545	-8.7640	12.7814	6.8183	88.1035	-34.2651	-25.2417	
4.0160	-24.5631	4.2256	46.2767	0.0000	1.2500	-0.0000	58.0515	-6.0532	-10.7284	61.5054	-18.5176	6.9163	0.0000	95.5865	10.5400	1.7909	85.9538	-6.8261	4.6033	0.0000	-12.3351	-1.6447	0.1102	84.3049	-12.0883	19.9854	0.9262	85.7849	-36.2118	-21.1535	83.7311	-8.7719	12.6251	6.9417	88.2280	-34.3014	-25.1523	
4.0330	-24.4883	3.8816	45.9755	0.0000	1.2500	-0.0000	60.8602	-5.8253	-8.6466	68.5367	-17.4987	7.8178	-0.0000	92.3673	9.9402	0.2870	79.8366	-8.1925	5.6095	0.0000	-12.3744	-1.4976	0.2116	84.5289	-11.9477	20.3054	1.0262	85.6796	-36.0783	-21.0900	83.6970	-8.7869	12.3475	7.0700	88.4542	-34.3290	-25.0559	
4.0500	-24.4198	3.5699	45.4958	0.0000	1.2500	-0.0000	64.0023	-5.5156	-6.8020	75.3035	-16.5907	8.6459	0.0000	88.6509	9.0760	-1.3397	73.5035	-9.7553	6.2753	-0.0000	-12.4088	-1.3901	0.3453	84.7452	-11.7384	20.6009	1.1623	85.6843	-35.9699	-20.9870	83.6192	-8.8656	12.1385	7.1797	88.5519	-34.3406	-25.0070	
4.0660	-24.3578	3.3308	44.7641	0.0000	1.2500	-0.0000	67.5036	-5.1718	-5.3733	81.7165	-16.1184	9.2925	0.0000	84.3570	7.9110	-3.1477	66.8902	-11.4381	6.2687	0.0000	-12.4376	-1.3530	0.5182	84.9491	-11.4391	20.8885	1.3912	85.7921	-35.8968	-20.8091	83.4448	-9.0348	12.1085	7.2766	88.4031	-34.3291	-25.0196	
4.0830	-24.3007	3.1244	43.8536	0.0000	1.2500	-0.0000	71.3358	-4.7358	-4.2236	87.9015	-15.7716	9.8953	-0.0000	79.5624	6.5960	-5.2153	60.0838	-13.3044	5.9069	0.0000	-12.4619	-1.3555	0.7233	85.1413	-11.0703	21.1506	1.6553	86.0109	-35.8482	-20.5915	83.2265	-9.2661	12.1470	7.3533	88.1264	-34.3017	-25.0799	
